PathFileType	4	(X/Y/Z)	C:\Users\Graham\Documents\MATLAB\MOtoNMS_v2_2\MyData\ElaboratedData\S1\17-05-18\dynamicElaborations\rightStSt\\ET2\ET2.trc
DataRate	CameraRate	NumFrames	NumMarkers	Units	OrigDataRate	DataStartFrame
100	100	8	29	mm	100	106
Frame#	Time	V_Sacral			R_ASIS			L_ASIS			R_Knee_Lat			R_Thigh_Upper			R_Thigh_Front			R_Thigh_Rear			L_Knee_Lat			L_Thigh_Upper			L_Thigh_Front			L_Thigh_Rear			R_Ankle_Lat			R_Shank_Upper			R_Shank_Front			R_Shank_Rear			L_Ankle_Lat			L_Shank_Upper			L_Shank_Front			L_Shank_Rear			R_Heel			R_MTP1			R_MTP5			L_Heel			L_MTP1			L_MTP5			Clavicle			C7			R_Acromium			L_Acromium		
		X1	Y1	Z1	X2	Y2	Z2	X3	Y3	Z3	X4	Y4	Z4	X5	Y5	Z5	X6	Y6	Z6	X7	Y7	Z7	X8	Y8	Z8	X9	Y9	Z9	X10	Y10	Z10	X11	Y11	Z11	X12	Y12	Z12	X13	Y13	Z13	X14	Y14	Z14	X15	Y15	Z15	X16	Y16	Z16	X17	Y17	Z17	X18	Y18	Z18	X19	Y19	Z19	X20	Y20	Z20	X21	Y21	Z21	X22	Y22	Z22	X23	Y23	Z23	X24	Y24	Z24	X25	Y25	Z25	X26	Y26	Z26	X27	Y27	Z27	X28	Y28	Z28	X29	Y29	Z29	

106	1.050000	-71.747907	1010.130776	-9.289219	238.915177	1013.469189	127.791367	237.734460	1005.022084	-127.606532	291.525391	534.843263	149.361927	260.072487	874.849215	166.570023	312.575665	763.130136	129.793348	264.268934	745.936037	188.036970	72.105947	513.804837	-138.157804	235.907276	810.955168	-138.348928	221.059569	697.617233	-81.022229	181.661915	696.317963	-157.390751	436.822989	132.110790	142.336843	413.294335	360.932317	126.432300	427.656012	248.985931	68.291960	424.721057	240.573171	149.909868	-120.131947	112.413786	-108.301877	32.074726	301.384784	-97.106727	-39.691766	208.912454	-44.938159	-43.191792	206.251593	-124.922381	394.696613	50.783281	83.203117	597.230225	151.013417	60.216530	591.884363	142.180265	138.657972	-200.745441	80.930617	-61.945910	30.726320	55.321716	-27.663599	13.077176	45.933632	-113.723228	266.786211	1440.727712	-4.241152	132.223412	1555.128538	-8.200897	206.698177	1472.768303	192.865228	217.656514	1480.301644	-215.351406	
107	1.060000	-70.990985	1009.094118	-7.175057	240.234743	1012.411594	128.708336	238.178707	1004.170948	-126.672189	293.576096	534.013400	148.967276	262.082453	874.664412	166.875552	314.994853	763.280636	129.607670	266.307599	745.477859	188.042699	70.106231	513.300830	-137.627482	235.520947	809.750122	-137.683371	220.493419	696.451678	-80.319433	180.641227	695.375366	-156.337705	433.733950	129.900857	139.999050	413.416902	358.583457	124.795669	426.092859	246.708609	66.155997	423.282287	238.009532	147.748285	-128.054440	114.527148	-108.604315	27.001428	301.315353	-96.967370	-46.176454	209.822020	-44.954383	-49.709861	207.365373	-124.930224	390.731751	49.289845	80.984711	593.883318	147.748830	57.354356	588.757703	138.942634	135.705158	-209.133536	84.357577	-62.300608	21.536224	55.307457	-27.666847	3.667851	45.871934	-113.672577	267.455525	1439.817934	-2.716672	132.740775	1554.172309	-6.311359	207.729537	1471.670095	194.559562	217.803921	1479.519439	-213.669084	
108	1.070000	-70.006612	1008.096315	-4.972621	241.810493	1011.427487	129.672485	238.807685	1003.398604	-125.686639	295.913939	533.213943	148.475747	264.374747	874.616743	167.199928	317.800445	763.611591	129.506283	268.793112	745.184333	188.154788	68.385603	512.833116	-137.085252	235.316410	808.596706	-137.019005	220.133301	695.342102	-79.593473	179.841297	694.490991	-155.263047	429.532881	127.509254	137.623075	413.196033	355.852392	122.874865	423.675450	243.977693	63.830911	421.165316	235.064510	145.406310	-135.809840	116.869864	-108.925189	22.140570	301.323649	-96.834766	-52.469234	210.881742	-45.001893	-56.050924	208.629606	-124.946139	385.014998	48.039401	79.027418	589.302834	143.017833	54.061401	584.437591	134.603529	132.381962	-217.373023	88.140796	-62.691904	12.339821	55.306272	-27.706288	-5.743083	45.837909	-113.615439	268.169776	1439.002624	-1.126664	133.242085	1553.264320	-4.326251	208.854066	1470.650410	196.328394	217.939470	1478.815583	-211.910512	
109	1.080000	-68.793549	1007.144233	-2.680335	243.652794	1010.529905	130.671743	239.627085	1002.715648	-124.662438	298.460561	532.478138	147.891632	266.965657	874.635002	167.547873	320.867670	763.990554	129.472023	271.725710	745.012268	188.364855	67.011068	512.393275	-136.523320	235.313805	807.512873	-136.346996	219.995928	694.300436	-78.851444	179.288922	693.676411	-154.191646	424.654992	125.128106	135.330014	412.723759	352.947510	120.700758	420.602366	241.004641	61.409960	418.652794	231.980926	142.981309	-143.364341	119.474024	-109.249243	17.537187	301.406608	-96.692596	-58.531856	212.100879	-45.064136	-62.177445	210.053234	-124.959250	378.024515	47.216773	77.469482	583.850947	137.118433	50.369408	579.321459	129.442857	128.750586	-225.425255	92.322503	-63.092662	3.115831	55.300103	-27.785147	-15.147455	45.831887	-113.556709	268.932163	1438.297321	0.524029	133.732939	1552.421996	-2.247717	210.068220	1469.715269	198.169742	218.056546	1478.189496	-210.081325	
110	1.090000	-67.363812	1006.250832	-0.297157	245.755263	1009.739125	131.688616	240.633237	1002.143485	-123.617237	301.134827	531.847728	147.250887	269.853986	874.662084	167.911687	324.080987	764.309313	129.478945	275.053442	744.917496	188.644657	66.079039	511.973942	-135.939145	235.541587	806.531002	-135.654018	220.118701	693.349690	-78.098481	179.026536	692.949972	-153.143699	419.486024	122.898293	133.250528	412.095230	350.066941	118.362818	417.079011	237.997735	59.024231	415.997049	228.982296	140.603254	-150.663119	122.373798	-109.551828	13.256847	301.568386	-96.531161	-64.298581	213.491592	-45.120363	-68.034281	211.653959	-124.958240	370.250653	46.926412	76.385200	577.878034	130.413928	46.423434	573.772284	123.731635	124.969294	-233.231365	96.958301	-63.457220	-6.159731	55.263068	-27.903669	-24.535000	45.850773	-113.500745	269.746402	1437.721992	2.227898	134.224972	1551.670255	-0.081014	211.367746	1468.873427	200.077730	218.149970	1477.646500	-208.190241	
111	1.100000	-65.740065	1005.435686	2.174340	248.092302	1009.081345	132.704535	241.812075	1001.712909	-122.569267	303.861307	531.363851	146.617933	273.005377	874.661809	168.270575	327.343684	764.500984	129.497888	278.667219	744.861252	188.950933	65.715795	511.568183	-135.340898	236.033543	805.696646	-134.921714	220.559475	692.522631	-77.336438	179.113472	692.335375	-152.129647	414.305905	120.899759	131.505529	411.391215	347.368727	115.998083	413.289958	235.132101	56.824813	413.381904	226.239568	138.415996	-157.625147	125.599824	-109.801577	9.389457	301.820586	-96.355070	-69.670554	215.067420	-45.151171	-73.544523	213.457627	-124.933826	362.127440	47.179474	75.779498	571.677699	123.283541	42.469270	568.068925	117.706126	121.275410	-240.705828	102.114188	-63.725378	-15.505137	55.164750	-28.058319	-33.892179	45.888226	-113.449695	270.615063	1437.299171	3.975468	134.732681	1551.038624	2.164931	212.747461	1468.138124	202.042311	218.218011	1477.200102	-206.248060	
112	1.110000	-63.953241	1004.723104	4.725158	250.619155	1008.585137	133.705102	243.139162	1001.459543	-121.532098	306.574507	531.057164	146.074268	276.341607	874.622103	168.594765	330.575709	764.546966	129.503246	282.410303	744.817132	189.235232	66.072344	511.168034	-134.751581	236.824524	805.064241	-134.127682	221.392767	691.858064	-76.564332	179.624867	691.858599	-151.149391	409.256493	119.157126	130.185878	410.660532	344.951607	113.768178	409.375018	232.529943	54.957675	410.896613	223.851364	136.552813	-164.141312	129.173522	-109.966308	6.050065	302.179857	-96.188781	-74.515757	216.840343	-45.144639	-78.607781	215.495239	-124.881910	353.977367	47.903198	75.597592	565.451220	116.076120	38.807356	562.375001	111.557597	117.941509	-247.731746	107.861745	-63.832081	-24.921757	54.976851	-28.241222	-43.200215	45.936656	-113.402227	271.537905	1437.050869	5.756499	135.269776	1550.556846	4.477770	214.201101	1467.527600	204.049884	218.263648	1476.872352	-204.266108	
113	1.120000	-62.040774	1004.138225	7.338054	253.274767	1008.276507	134.684897	244.580696	1001.416968	-120.510006	309.216978	530.939705	145.701335	279.740058	874.554241	168.853826	333.704125	764.473116	129.479825	286.100942	744.776561	189.456919	67.312254	510.762986	-134.210208	237.945848	804.690173	-133.248326	222.702832	691.395275	-75.780729	180.647413	691.543907	-150.196744	404.341308	117.655211	129.335985	409.908051	342.850611	111.828871	405.414325	230.254661	53.536988	408.529591	221.841825	135.111881	-170.077551	133.103311	-110.021324	3.374518	302.663305	-96.077564	-78.676737	218.817379	-45.101823	-83.102719	217.798339	-124.807139	345.982947	48.966887	75.745050	559.289937	109.077196	35.724528	556.733447	105.436339	115.215191	-254.159995	114.272694	-63.721747	-34.382544	54.682753	-28.440273	-52.432764	45.991503	-113.353193	272.510569	1436.995018	7.561368	135.845872	1550.249962	6.842708	215.721261	1467.064003	206.084701	218.294529	1476.691879	-202.254586	
